<svg width="126" height="39" viewBox="0 0 126 39" fill="none" xmlns="http://www.w3.org/2000/svg">
<g clip-path="url(#clip0_732_3431)">
<path d="M33.0001 19.5C33.0055 23.2544 31.7251 26.8974 29.3718 29.8228L28.3334 28.6726L20.0811 19.5037L20.5325 18.9936C22.7492 16.4807 26.4153 11.8856 27.7201 7.36856C28.2052 7.82313 28.6597 8.30939 29.0804 8.82414C29.1109 8.85957 29.1415 8.8956 29.1708 8.93164C31.6497 11.8949 33.0054 15.6367 33.0001 19.5Z" fill="white"/>
<path d="M23.694 30.5069L18.1575 24.3554L16.9493 23.0116C14.1004 26.1878 10.8978 29.741 10.8978 29.741H4.79867L6.15898 28.2237L19.5086 13.3362C22.1865 10.2315 23.8199 7.52493 24.7789 5.22521C24.5936 5.1177 24.4065 5.01407 24.2175 4.9143C21.8408 3.65352 19.1907 2.99614 16.5003 3C7.38736 3 0 10.3872 0 19.5C0 28.6128 7.38736 36 16.5003 36C18.8205 36.0024 21.1149 35.5143 23.2332 34.5676C25.3514 33.6209 27.2456 32.2371 28.7914 30.5069H23.694ZM10.5099 8.86446L16.2761 15.2713L13.1365 18.7744L5.07354 9.81794L4.21838 8.86446H10.5099Z" fill="url(#paint0_linear_732_3431)"/>
</g>
<path d="M43.016 31V10.14H50.8C52.2187 10.14 53.4693 10.4013 54.552 10.924C55.6533 11.428 56.512 12.1746 57.128 13.164C57.744 14.1346 58.052 15.32 58.052 16.72C58.052 18.1013 57.7347 19.2866 57.1 20.276C56.484 21.2466 55.6347 21.9933 54.552 22.516C53.4693 23.0386 52.2187 23.3 50.8 23.3H46.824V31H43.016ZM46.824 19.94H50.856C51.5467 19.94 52.144 19.8093 52.648 19.548C53.152 19.268 53.544 18.8853 53.824 18.4C54.104 17.9146 54.244 17.3546 54.244 16.72C54.244 16.0666 54.104 15.5066 53.824 15.04C53.544 14.5546 53.152 14.1813 52.648 13.92C52.144 13.64 51.5467 13.5 50.856 13.5H46.824V19.94ZM60.8643 31V15.768H64.5323V31H60.8643ZM60.8643 14.06V10.14H64.5323V14.06H60.8643ZM66.5469 31L71.8669 23.356L66.5189 15.768H70.8309L75.0029 21.928H73.0709L77.2429 15.768H81.5269L76.2069 23.356L81.4989 31H77.2149L73.0989 24.868H74.9749L70.8589 31H66.5469ZM90.3773 37.16C89.2387 37.16 88.184 36.9733 87.2133 36.6C86.2427 36.2266 85.4027 35.704 84.6933 35.032C84.0027 34.3786 83.4987 33.604 83.1813 32.708L86.5973 31.42C86.8213 32.1293 87.26 32.6986 87.9133 33.128C88.5853 33.576 89.4067 33.8 90.3773 33.8C91.124 33.8 91.7773 33.66 92.3373 33.38C92.916 33.1 93.364 32.6893 93.6813 32.148C93.9987 31.6253 94.1573 30.9906 94.1573 30.244V26.772L94.8573 27.612C94.3347 28.5266 93.6347 29.2173 92.7573 29.684C91.88 30.1506 90.8813 30.384 89.7613 30.384C88.3427 30.384 87.0733 30.0573 85.9533 29.404C84.8333 28.7506 83.956 27.8546 83.3213 26.716C82.6867 25.5773 82.3693 24.2986 82.3693 22.88C82.3693 21.4426 82.6867 20.164 83.3213 19.044C83.956 17.924 84.824 17.0466 85.9253 16.412C87.0267 15.7586 88.2773 15.432 89.6773 15.432C90.816 15.432 91.8147 15.6746 92.6733 16.16C93.5507 16.6266 94.2787 17.308 94.8573 18.204L94.3533 19.128V15.768H97.8253V30.244C97.8253 31.5693 97.4987 32.7546 96.8453 33.8C96.2107 34.8453 95.3333 35.6666 94.2133 36.264C93.112 36.8613 91.8333 37.16 90.3773 37.16ZM90.2093 26.996C90.9933 26.996 91.6747 26.828 92.2533 26.492C92.8507 26.1373 93.3173 25.652 93.6533 25.036C93.9893 24.42 94.1573 23.7106 94.1573 22.908C94.1573 22.124 93.98 21.424 93.6253 20.808C93.2893 20.1733 92.8227 19.6786 92.2253 19.324C91.6467 18.9693 90.9747 18.792 90.2093 18.792C89.444 18.792 88.7533 18.9693 88.1373 19.324C87.5213 19.6786 87.036 20.1733 86.6813 20.808C86.3453 21.424 86.1773 22.124 86.1773 22.908C86.1773 23.692 86.3453 24.392 86.6813 25.008C87.036 25.624 87.512 26.1093 88.1093 26.464C88.7253 26.8186 89.4253 26.996 90.2093 26.996ZM101.251 31V15.768H104.919V31H101.251ZM101.251 14.06V10.14H104.919V14.06H101.251Z" fill="white"/>
<path d="M107.306 31L114.138 20.5L107.362 10.14H111.73L117.274 18.624H115.258L120.774 10.14H125.142L118.394 20.5L125.198 31H120.83L115.258 22.404H117.274L111.674 31H107.306Z" fill="url(#paint1_linear_732_3431)"/>
<defs>
<linearGradient id="paint0_linear_732_3431" x1="14.3" y1="32.15" x2="14.3" y2="6.29998" gradientUnits="userSpaceOnUse">
<stop stop-color="#FFE451"/>
<stop offset="1" stop-color="#ADFF35"/>
</linearGradient>
<linearGradient id="paint1_linear_732_3431" x1="116" y1="11" x2="116" y2="31" gradientUnits="userSpaceOnUse">
<stop stop-color="#FFE451"/>
<stop offset="1" stop-color="#ADFF35"/>
</linearGradient>
<clipPath id="clip0_732_3431">
<rect width="33" height="33" fill="white" transform="translate(0 3)"/>
</clipPath>
</defs>
</svg>
