<svg xmlns="http://www.w3.org/2000/svg" viewBox="0 0 500 500"><g id="freepik--background-complete--inject-91"><rect y="382.4" width="500" height="0.25" style="fill:#ebebeb"></rect><rect x="428.22" y="398.49" width="21.68" height="0.25" style="fill:#ebebeb"></rect><rect x="310.56" y="393.31" width="34.11" height="0.25" style="fill:#ebebeb"></rect><rect x="396.59" y="389.21" width="44.53" height="0.25" style="fill:#ebebeb"></rect><rect x="161.88" y="394.25" width="11.14" height="0.25" style="fill:#ebebeb"></rect><rect x="114.58" y="394.25" width="38.39" height="0.25" style="fill:#ebebeb"></rect><rect x="66.31" y="390.03" width="27.7" height="0.25" style="fill:#ebebeb"></rect><path d="M237,337.8H43.91a5.71,5.71,0,0,1-5.7-5.71V60.66A5.71,5.71,0,0,1,43.91,55H237a5.71,5.71,0,0,1,5.71,5.71V332.09A5.71,5.71,0,0,1,237,337.8ZM43.91,55.2a5.46,5.46,0,0,0-5.45,5.46V332.09a5.46,5.46,0,0,0,5.45,5.46H237a5.47,5.47,0,0,0,5.46-5.46V60.66A5.47,5.47,0,0,0,237,55.2Z" style="fill:#ebebeb"></path><path d="M453.31,337.8H260.21a5.72,5.72,0,0,1-5.71-5.71V60.66A5.72,5.72,0,0,1,260.21,55h193.1A5.71,5.71,0,0,1,459,60.66V332.09A5.71,5.71,0,0,1,453.31,337.8ZM260.21,55.2a5.47,5.47,0,0,0-5.46,5.46V332.09a5.47,5.47,0,0,0,5.46,5.46h193.1a5.47,5.47,0,0,0,5.46-5.46V60.66a5.47,5.47,0,0,0-5.46-5.46Z" style="fill:#ebebeb"></path><path d="M115,174.63a20.91,20.91,0,0,0,0-41.82h-2.57v41.82Z" style="fill:#e0e0e0"></path><circle cx="112.41" cy="153.72" r="20.91" style="fill:#f5f5f5"></circle><path d="M111.45,156.34a28,28,0,0,1-28-28V111.63a2.63,2.63,0,0,1,5.26,0v16.72a22.76,22.76,0,0,0,22.73,22.74,2.63,2.63,0,1,1,0,5.25Z" style="fill:#e0e0e0"></path><path d="M62.83,126.35h46.52a4.86,4.86,0,0,0,4.7-6.1L110,105a4.86,4.86,0,0,0-4.69-3.62H66.87a4.87,4.87,0,0,0-4.7,3.62l-4,15.23A4.85,4.85,0,0,0,62.83,126.35Z" style="fill:#f5f5f5"></path><path d="M410.28,174.63a20.91,20.91,0,1,0,0-41.82h-2.57v41.82Z" style="fill:#e0e0e0"></path><circle cx="407.71" cy="153.72" r="20.91" style="fill:#f5f5f5"></circle><path d="M406.75,156.34a28,28,0,0,1-28-28V111.63a2.63,2.63,0,0,1,5.26,0v16.72a22.76,22.76,0,0,0,22.73,22.74,2.63,2.63,0,1,1,0,5.25Z" style="fill:#e0e0e0"></path><path d="M358.13,126.35h46.52a4.86,4.86,0,0,0,4.7-6.1l-4-15.23a4.86,4.86,0,0,0-4.69-3.62H362.17a4.87,4.87,0,0,0-4.7,3.62l-4,15.23A4.85,4.85,0,0,0,358.13,126.35Z" style="fill:#f5f5f5"></path><rect x="133.98" y="256.92" width="15.21" height="58.93" transform="translate(283.17 572.78) rotate(180)" style="fill:#e6e6e6"></rect><polygon points="92.75 315.85 143.22 315.85 150.84 246.88 100.37 246.88 92.75 315.85" style="fill:#f0f0f0"></polygon><polygon points="87.28 315.85 139.42 315.85 147.04 246.88 94.91 246.88 87.28 315.85" style="fill:#f5f5f5"></polygon><polygon points="135.65 310.42 142.07 252.32 98.67 252.32 92.25 310.42 135.65 310.42" style="fill:#fff"></polygon><path d="M126.69,296.33,127,294c1.61-14.58-7.49-27.57-19.31-27.57h0l-.27,2.37c-1.61,14.57,7.49,27.56,19.32,27.56Z" style="fill:#f5f5f5"></path><rect x="59.08" y="315.85" width="44.84" height="66.55" transform="translate(163.01 698.25) rotate(180)" style="fill:#e6e6e6"></rect><polygon points="63.59 382.4 59.08 382.4 59.08 369.57 68.32 369.57 63.59 382.4" style="fill:#f0f0f0"></polygon><rect x="184.75" y="315.85" width="44.84" height="66.55" transform="translate(414.35 698.25) rotate(180)" style="fill:#e6e6e6"></rect><rect x="59.08" y="315.85" width="129.61" height="58.67" transform="translate(247.77 690.38) rotate(180)" style="fill:#f0f0f0"></rect><polygon points="184.18 382.4 188.69 382.4 188.69 369.57 179.45 369.57 184.18 382.4" style="fill:#f0f0f0"></polygon><rect x="62.58" y="319.52" width="122.61" height="23.68" transform="translate(247.77 662.72) rotate(180)" style="fill:#e6e6e6"></rect><path d="M115.71,335h16.35a25.84,25.84,0,0,0,18.78-8.08H96.93A25.87,25.87,0,0,0,115.71,335Z" style="fill:#f0f0f0"></path><rect x="62.58" y="347.02" width="122.61" height="23.68" transform="translate(247.77 717.72) rotate(180)" style="fill:#e6e6e6"></rect><path d="M115.71,362.46h16.35a25.84,25.84,0,0,0,18.78-8.08H96.93A25.87,25.87,0,0,0,115.71,362.46Z" style="fill:#f0f0f0"></path><path d="M180.48,313.14h1.16c0-2.39,0-8.44.12-22.31.21-25.15.61-26.68.61-26.68l-2.76,11.61C177.86,288.61,180.12,301.53,180.48,313.14Z" style="fill:#e6e6e6"></path><path d="M178.19,274c-4-4.73-12.45-6.11-21.13-7.29-3.41-.46,8.95,7.33,15,12.86,4.7,4.3,7.7,5.49,9,9.77C181.72,284,181.61,278.11,178.19,274Z" style="fill:#e6e6e6"></path><path d="M183.46,282.48c4-4.73,12.45-6.1,21.13-7.28,3.41-.46-9,7.33-15,12.86-4.7,4.3-7.7,5.49-9,9.77C179.93,292.49,180,286.56,183.46,282.48Z" style="fill:#e6e6e6"></path><path d="M181.76,263c3-5.66,10.46-11,18.87-13,3.3-.79-7.65,10.44-11.81,17.69-3.23,5.62-7.51,12.24-8.18,17C179.64,275.31,178.78,268.69,181.76,263Z" style="fill:#e6e6e6"></path><path d="M181.4,315.85h0c-3.54,0-6.47-1.77-6.68-4.05l-.59-3.88h14.55l-.6,3.88C187.88,314.08,185,315.85,181.4,315.85Z" style="fill:#f0f0f0"></path><polygon points="189.62 309.41 173.19 309.41 172.72 305.08 190.09 305.08 189.62 309.41" style="fill:#f0f0f0"></polygon><rect x="169.54" y="80.59" width="160.21" height="146.13" transform="translate(499.29 307.31) rotate(180)" style="fill:#e6e6e6"></rect><rect x="165.93" y="80.59" width="162.24" height="146.13" transform="translate(494.11 307.31) rotate(180)" style="fill:#f5f5f5"></rect><rect x="180.54" y="79.01" width="133.04" height="149.3" transform="translate(400.71 -93.4) rotate(90)" style="fill:#fafafa"></rect><polygon points="303.39 220.18 244.63 87.14 224.67 87.14 283.43 220.18 303.39 220.18" style="fill:#fff"></polygon><polygon points="277.77 220.18 219.01 87.14 205.27 87.14 264.03 220.18 277.77 220.18" style="fill:#fff"></polygon><rect x="157.46" y="149.8" width="133.04" height="7.72" transform="translate(377.64 -70.33) rotate(90)" style="fill:#e6e6e6"></rect><rect x="208.78" y="149.8" width="133.04" height="7.72" transform="translate(428.96 -121.65) rotate(90)" style="fill:#e6e6e6"></rect><rect x="150.54" y="148.42" width="142.06" height="9.76" transform="translate(374.87 -68.27) rotate(90)" style="fill:#f5f5f5"></rect><rect x="201.86" y="148.42" width="142.06" height="9.76" transform="translate(426.19 -119.59) rotate(90)" style="fill:#f5f5f5"></rect><rect x="106.23" y="153.31" width="133.04" height="0.69" transform="translate(326.41 -19.09) rotate(90)" style="fill:#e6e6e6"></rect><path d="M163.22,72.17H336.78a.85.85,0,0,1,.84.84h0a.84.84,0,0,1-.84.83H163.22a.84.84,0,0,1-.84-.83h0A.85.85,0,0,1,163.22,72.17Z" style="fill:#e6e6e6"></path><path d="M329.75,77.68h0a1.13,1.13,0,0,0,1.12-1.13V74.13A1.12,1.12,0,0,0,329.75,73h0a1.13,1.13,0,0,0-1.13,1.12v2.42A1.14,1.14,0,0,0,329.75,77.68Z" style="fill:#e6e6e6"></path><path d="M175.8,77.68h0a1.14,1.14,0,0,0,1.13-1.13V74.13A1.13,1.13,0,0,0,175.8,73h0a1.12,1.12,0,0,0-1.12,1.12v2.42A1.13,1.13,0,0,0,175.8,77.68Z" style="fill:#e6e6e6"></path><rect x="163.48" y="73.01" width="162.13" height="114.44" transform="translate(489.09 260.45) rotate(180)" style="fill:#e0e0e0;opacity:0.6000000000000001"></rect><rect x="306.95" y="259.97" width="38.72" height="23.7" rx="5.38" style="fill:#fafafa"></rect><rect x="306.95" y="255.59" width="38.72" height="5.08" rx="1.81" style="fill:#e6e6e6"></rect><path d="M307.52,310s.51,16.67,19.93,16.67S347.38,310,347.38,310Z" style="fill:#f0f0f0"></path><path d="M351.8,310s.51,16.67,19.93,16.67S391.66,310,391.66,310Z" style="fill:#f0f0f0"></path><rect x="336.24" y="249.24" width="53.2" height="34.44" rx="7.4" style="fill:#f0f0f0"></rect><rect x="336.24" y="243.22" width="53.2" height="6.98" rx="2.48" style="fill:#f5f5f5"></rect><rect x="292.9" y="299.75" width="5.04" height="82.64" transform="translate(590.83 682.15) rotate(180)" style="fill:#e6e6e6"></rect><rect x="411.13" y="283.67" width="27.29" height="16.08" style="fill:#e6e6e6"></rect><rect x="275.45" y="283.67" width="135.68" height="16.08" transform="translate(686.57 583.43) rotate(180)" style="fill:#f5f5f5"></rect><rect x="411.13" y="326.62" width="27.29" height="16.08" style="fill:#e6e6e6"></rect><rect x="275.45" y="326.62" width="135.68" height="16.08" transform="translate(686.57 669.32) rotate(180)" style="fill:#f5f5f5"></rect><rect x="428.58" y="299.75" width="5.04" height="82.64" transform="translate(862.19 682.15) rotate(180)" style="fill:#e6e6e6"></rect><rect x="406.09" y="299.75" width="5.04" height="82.64" transform="translate(817.22 682.15) rotate(180)" style="fill:#f5f5f5"></rect><rect x="275.45" y="299.75" width="5.04" height="82.64" transform="translate(555.93 682.15) rotate(180)" style="fill:#f5f5f5"></rect></g><g id="freepik--Login--inject-91"><path d="M260.41,365.5H132.84a8.13,8.13,0,0,1-8-7.64L113.4,136.31a7.17,7.17,0,0,1,7.24-7.63H248.21a8.12,8.12,0,0,1,8,7.63l11.42,221.55A7.18,7.18,0,0,1,260.41,365.5Z" style="fill:#D0AC5D"></path><path d="M260.41,365.5H132.84a8.13,8.13,0,0,1-8-7.64L113.4,136.31a7.17,7.17,0,0,1,7.24-7.63H248.21a8.12,8.12,0,0,1,8,7.63l11.42,221.55A7.18,7.18,0,0,1,260.41,365.5Z" style="fill:#fff;opacity:0.8"></path><rect x="221.51" y="121.46" width="14.11" height="1" style="fill:#D0AC5D"></rect><rect x="211.45" y="121.46" width="5.17" height="1" style="fill:#D0AC5D"></rect><path d="M265.9,351.44h-122a7.77,7.77,0,0,1-7.68-7.29l-10.92-211.9a6.86,6.86,0,0,1,6.93-7.3h122a7.77,7.77,0,0,1,7.67,7.3l10.92,211.9A6.85,6.85,0,0,1,265.9,351.44Z" style="fill:#D0AC5D"></path><path d="M265.9,346.57h-122a2.92,2.92,0,0,1-2.81-2.68L130.16,132a2,2,0,0,1,.54-1.55,2,2,0,0,1,1.52-.62h122a2.92,2.92,0,0,1,2.8,2.68L268,344.4a2,2,0,0,1-2.05,2.17ZM132.22,130.08a1.79,1.79,0,0,0-1.34.54,1.84,1.84,0,0,0-.47,1.37l10.92,211.89a2.67,2.67,0,0,0,2.56,2.44h122a1.74,1.74,0,0,0,1.33-.54,1.76,1.76,0,0,0,.47-1.37L256.78,132.52a2.66,2.66,0,0,0-2.55-2.44Z" style="fill:#fff"></path><ellipse cx="196.09" cy="180.61" rx="36" ry="37.9" transform="translate(-70.12 194.99) rotate(-45.74)" style="fill:#fff;opacity:0.30000000000000004"></ellipse><path d="M226,180.61a28.71,28.71,0,0,1-2.87,14.24,28.07,28.07,0,0,1-25.47,15.65,31.75,31.75,0,0,1-27.08-15.65,30.78,30.78,0,0,1-4.34-14.24,28.09,28.09,0,0,1,28.34-29.88A31.81,31.81,0,0,1,226,180.61Z" style="fill:#fff"></path><path d="M223.1,194.85a28.07,28.07,0,0,1-25.47,15.65,31.75,31.75,0,0,1-27.08-15.65,45.16,45.16,0,0,1,25.86-8A49.14,49.14,0,0,1,223.1,194.85Z" style="fill:#D0AC5D"></path><ellipse cx="195.56" cy="170.39" rx="12.97" ry="13.66" transform="translate(-62.95 191.52) rotate(-45.74)" style="fill:#D0AC5D"></ellipse><path d="M248.41,269H152.88a3.29,3.29,0,0,1-3.25-3.09l-.72-14a2.9,2.9,0,0,1,2.93-3.08h95.53a3.29,3.29,0,0,1,3.25,3.08l.72,14A2.9,2.9,0,0,1,248.41,269Z" style="fill:#fff"></path><path d="M219.16,241.1h-39.9A3.29,3.29,0,0,1,176,238l-.15-3a2.9,2.9,0,0,1,2.93-3.09h39.89a3.29,3.29,0,0,1,3.25,3.09l.16,3A2.92,2.92,0,0,1,219.16,241.1Z" style="opacity:0.30000000000000004"></path><path d="M234,336.31H174.23a5.61,5.61,0,0,1-5.53-5.26l-.35-6.9a5,5,0,0,1,5-5.26H233.1a5.61,5.61,0,0,1,5.53,5.26l.35,6.9A5,5,0,0,1,234,336.31Z" style="opacity:0.30000000000000004"></path><path d="M250.16,302.86H154.62a3.3,3.3,0,0,1-3.25-3.09l-.72-14a2.91,2.91,0,0,1,2.93-3.09h95.53a3.29,3.29,0,0,1,3.25,3.09l.73,14A2.92,2.92,0,0,1,250.16,302.86Z" style="fill:#fff"></path><path d="M165,258.91a3.22,3.22,0,0,1-3.25,3.42,3.64,3.64,0,0,1-3.59-3.42,3.21,3.21,0,0,1,3.24-3.42A3.65,3.65,0,0,1,165,258.91Z" style="fill:#263238"></path><path d="M175.53,258.91a3.21,3.21,0,0,1-3.24,3.42,3.63,3.63,0,0,1-3.59-3.42,3.21,3.21,0,0,1,3.24-3.42A3.63,3.63,0,0,1,175.53,258.91Z" style="fill:#263238"></path><path d="M186,258.91a3.21,3.21,0,0,1-3.24,3.42,3.65,3.65,0,0,1-3.6-3.42,3.22,3.22,0,0,1,3.25-3.42A3.64,3.64,0,0,1,186,258.91Z" style="fill:#263238"></path><path d="M196.55,258.91a3.22,3.22,0,0,1-3.24,3.42,3.65,3.65,0,0,1-3.6-3.42,3.22,3.22,0,0,1,3.24-3.42A3.65,3.65,0,0,1,196.55,258.91Z" style="fill:#263238"></path><path d="M166.77,292.75a3.21,3.21,0,0,1-3.24,3.42,3.65,3.65,0,0,1-3.6-3.42,3.22,3.22,0,0,1,3.25-3.42A3.64,3.64,0,0,1,166.77,292.75Z" style="fill:#263238"></path><path d="M177.28,292.75a3.22,3.22,0,0,1-3.24,3.42,3.65,3.65,0,0,1-3.6-3.42,3.21,3.21,0,0,1,3.24-3.42A3.65,3.65,0,0,1,177.28,292.75Z" style="fill:#263238"></path><path d="M187.79,292.75a3.22,3.22,0,0,1-3.25,3.42,3.63,3.63,0,0,1-3.59-3.42,3.21,3.21,0,0,1,3.24-3.42A3.65,3.65,0,0,1,187.79,292.75Z" style="fill:#263238"></path><path d="M198.29,292.75a3.21,3.21,0,0,1-3.24,3.42,3.65,3.65,0,0,1-3.6-3.42,3.22,3.22,0,0,1,3.25-3.42A3.63,3.63,0,0,1,198.29,292.75Z" style="fill:#263238"></path><path d="M208.8,292.75a3.21,3.21,0,0,1-3.24,3.42,3.65,3.65,0,0,1-3.6-3.42,3.22,3.22,0,0,1,3.24-3.42A3.65,3.65,0,0,1,208.8,292.75Z" style="fill:#263238"></path><path d="M219.31,292.75a3.22,3.22,0,0,1-3.25,3.42,3.64,3.64,0,0,1-3.59-3.42,3.21,3.21,0,0,1,3.24-3.42A3.65,3.65,0,0,1,219.31,292.75Z" style="fill:#263238"></path></g></svg>